<svg
  xmlns="http://www.w3.org/2000/svg"
  viewBox="241.68 261.95 764.66 713.05"
>   
  <path
    fill="#255e3d"
    d="M385 358c4.983 1.665 9.032 4.513 13.352 7.426l2.465 1.647q3.907 2.614 7.808 5.24l5.086 3.4a3244 3244 0 0 1 25.48 17.224l2.271 1.549c6.864 4.7 13.605 9.565 20.331 14.46a950 950 0 0 0 9.626 6.907C479.73 421.746 487.88 427.845 496 434l1.714 1.296C515.193 448.533 532.75 462.204 548 478a414 414 0 0 0 7.508 7.402C575.675 504.938 591.319 529.693 601 556l.734 1.983c7.622 21.059 7.716 42.59 7.673 64.709-.005 4.105.008 8.21.018 12.314.017 8.013.018 16.025.013 24.038a13570 13570 0 0 0 .005 22.368l.004 5.678c.014 17.692.009 35.384-.003 53.077-.01 16.162.003 32.324.027 48.486q.037 24.955.027 49.91-.007 13.986.017 27.972.022 11.895-.002 23.792c-.009 4.04-.011 8.08.004 12.12q.02 5.561-.01 11.121c-.006 1.957.008 3.915.023 5.872-.123 14.948-4.393 29.238-14.655 40.372C574.928 978.553 546.365 973 521 973V689c-15.48 8.027-30.877 16.053-46.15 24.442-5.228 2.858-10.477 5.675-15.725 8.495-8.857 4.765-17.714 9.532-26.562 14.313l-3.088 1.664-2.846 1.54-2.498 1.348c-1.757.988-3.454 2.08-5.131 3.198-.306 3.044-.415 5.887-.399 8.934l-.02 2.84c-.019 3.158-.016 6.316-.013 9.475l-.031 6.769c-.028 6.142-.037 12.284-.043 18.427-.01 6.412-.036 12.825-.06 19.238q-.058 16.154-.088 32.307a25071 25071 0 0 1-.084 33.28l-.006 2.072-.034 10.286c-.093 28.457-.164 56.915-.222 85.372-19.52-8.288-37.489-19.754-54-33q-2.186-1.659-4.375-3.312C342.194 923.014 325.481 907.627 312 890a783 783 0 0 0-2.55-3.14c-18.314-22.58-32.387-48.065-43.596-74.827a386 386 0 0 0-1.708-4.004C254.49 785.682 248.892 760.961 245 737l-.496-3.012c-2.77-17.902-2.79-35.852-2.816-53.926l-.012-3.552c-.025-15.284.652-30.318 2.324-45.51q.252-2.399.502-4.797c.925-8.844 2.38-17.524 4.116-26.241.625-3.21 1.182-6.431 1.757-9.65 4.731-25.285 11.786-50.367 21.71-74.12.99-2.374 1.958-4.757 2.927-7.141C289.202 474.61 308.988 443.185 332 414l2.395-3.047c4.94-6.16 10.215-11.959 15.613-17.715 2.146-2.295 4.213-4.644 6.262-7.027 4.218-4.845 8.74-9.368 13.293-13.899l2.498-2.51c4.162-4.155 8.336-8.139 12.939-11.802"
  />   
  <path
    fill="#265f3d"
    d="M993 572c7.902 36.816 7.902 36.816 9.676 53.049q.35 3.171.73 6.34c8.393 70.73-.659 144.392-34.454 207.818-.998 1.88-1.97 3.773-2.94 5.668-4.17 8.08-8.751 15.694-14.012 23.125l-1.246 1.765C944.27 878.905 937.376 887.57 930 896l-2.094 2.434C917.306 910.52 905.866 922.319 893 932l-1.693 1.286C870.14 949.322 843.996 968.501 818 975V852l-5-2a184 184 0 0 1-5.113-2.766l-2.994-1.675-3.206-1.809-3.357-1.887c-8.475-4.778-16.885-9.665-25.275-14.592-8.438-4.944-16.956-9.735-25.508-14.478-5.565-3.093-11.057-6.267-16.475-9.611-2.153-1.317-2.153-1.317-5.072-2.182-2.389.962-2.389.962-4.953 2.508l-3.034 1.723-3.263 1.894-3.349 1.91q-3.468 1.976-6.928 3.968a2398 2398 0 0 1-13.206 7.536q-2.963 1.68-5.916 3.372l-2.71 1.542-2.359 1.349c-2.347 1.232-4.82 2.213-7.282 3.198v142c-12.306-4.102-21.387-12.21-27.75-23.484-4.173-8.4-5.356-16.697-5.424-26.046l-.02-2.199q-.028-3.621-.046-7.243l-.04-5.216c-.116-15.858-.172-31.716-.217-47.574a6671 6671 0 0 0-.187-35.11c-.065-8.25-.098-16.5-.11-24.75a1540 1540 0 0 0-.082-14.75c-.051-4.634-.063-9.266-.047-13.9q0-2.533-.044-5.065c-.404-24.519 15.754-44.168 32.166-61.163a958 958 0 0 1 5.489-5.5l1.455-1.452C685.678 691.05 693.43 684.275 702 678l2.965-2.379C721.539 662.331 740.157 651.706 759 642l2.67-1.377c24.581-12.52 51.21-23.235 77.807-30.603 3.488-1.01 6.903-2.148 10.336-3.332 15.118-5.108 30.609-9.133 46.104-12.919a336 336 0 0 0 13.294-3.537c11.972-3.456 24.13-6.084 36.291-8.777 5.365-1.192 10.717-2.43 16.068-3.682l4.795-1.116a1925 1925 0 0 0 6.995-1.638q3.242-.765 6.488-1.515l3.75-.88c3.225-.592 6.133-.744 9.402-.624"
  />   
  <path
    fill="#97be6e"
    d="M860 358c8.831 4.063 15.57 12.383 22.363 19.178 1.563 1.56 3.134 3.113 4.705 4.666 5.7 5.668 11.008 11.446 16.003 17.753 1.879 2.34 3.84 4.565 5.866 6.778 5.03 5.613 9.56 11.59 14.063 17.625l1.505 2.004C952.095 462.897 992 524.022 992 572l-2.844.623c-17.404 3.819-34.782 7.702-52.09 11.935a1149 1149 0 0 1-21.941 5.13A511 511 0 0 0 890 596l-5.773 1.594c-23.978 6.47-23.978 6.47-47.49 14.417-2.894 1.046-5.808 1.94-8.757 2.821-53.683 16.409-106 43.385-146.98 82.168l-1.9 1.797c-25.388 24.102-25.388 24.102-38.362 55.567l-.016 3.919-.018 2.19c-.017 2.418-.02 4.834-.023 7.25l-.03 5.205a4637 4637 0 0 0-.056 14.118c-.015 4.92-.042 9.84-.068 14.759-.047 9.314-.083 18.628-.116 27.942a27795 27795 0 0 1-.138 31.814q-.155 32.72-.273 65.439h-1a143996 143996 0 0 1-.167-144.668q-.022-24.094-.064-48.19-.043-24.749-.051-49.497-.005-15.255-.042-30.508-.023-10.48-.017-20.961c.002-4.023 0-8.045-.017-12.068-.074-19.484.111-38.537 6.108-57.295l.778-2.5c2.58-8.046 5.774-15.722 9.472-23.313l.995-2.064c12.58-25.782 31.833-49.17 53.564-67.838a649 649 0 0 0 5.789-5.04A502 502 0 0 1 741 442l2.368-1.825c11.335-8.728 22.783-17.27 34.422-25.59a1301 1301 0 0 0 6.769-4.894A1154 1154 0 0 1 814 389l6.031-4.113c11.283-7.69 22.587-15.344 33.969-22.887q3-1.999 6-4"
  />   
  <path
    fill="#77a75c"
    d="M385 358c4.983 1.665 9.032 4.513 13.352 7.426l2.465 1.647q3.907 2.614 7.808 5.24l5.086 3.4a3244 3244 0 0 1 25.48 17.224l2.271 1.549c6.864 4.7 13.605 9.565 20.331 14.46a950 950 0 0 0 9.626 6.907C479.73 421.746 487.88 427.845 496 434l1.714 1.296C515.193 448.533 532.75 462.204 548 478a414 414 0 0 0 7.508 7.402C575.675 504.938 591.319 529.693 601 556l.734 1.983c7.726 21.347 7.694 43.127 7.57 65.527-.019 4.038-.02 8.076-.024 12.115-.01 7.614-.034 15.227-.064 22.841-.034 8.683-.05 17.365-.065 26.047Q609.103 711.257 609 738c-2.747-3.367-4.957-6.602-7-10.437-4.407-7.665-10.024-14.082-16-20.563l-1.392-1.513c-6.71-7.202-14.087-13.294-21.918-19.207a445 445 0 0 1-4.65-3.585C525.364 657.541 487.54 640.06 449 626l-3.629-1.384c-4.542-1.704-9.136-3.226-13.75-4.725l-2.67-.872a6149 6149 0 0 0-11.453-3.724c-20.942-6.796-41.84-13.242-63.185-18.67a557 557 0 0 1-15.625-4.25c-8.406-2.39-16.907-4.29-25.434-6.191-8.66-1.936-17.256-4.112-25.828-6.403A662 662 0 0 0 255 572c1.308-8.613 3.567-16.764 6.188-25.062l.605-1.931c3.065-9.757 6.348-19.376 10.291-28.814.992-2.375 1.959-4.758 2.928-7.142C289.202 474.61 308.988 443.185 332 414l2.395-3.047c4.94-6.16 10.215-11.959 15.613-17.715 2.146-2.295 4.213-4.644 6.262-7.027 4.218-4.845 8.74-9.368 13.293-13.899l2.498-2.51c4.162-4.155 8.336-8.139 12.939-11.802"
  />   
  <path
    fill="#8bb66b"
    d="M612 262v232c-2.94-2.94-5.84-5.856-8.672-8.89l-4.078-4.36c-7.44-7.923-14.838-15.797-23.098-22.879-2.533-2.202-4.995-4.473-7.465-6.746-5.402-4.921-10.999-9.54-16.687-14.125q-1.827-1.496-3.652-2.996c-8.21-6.734-16.547-13.271-25.004-19.692a944 944 0 0 1-10.977-8.494C496.565 393.445 480.297 381.708 464 370l-1.82-1.31a1793 1793 0 0 0-19.572-13.867 4804 4804 0 0 1-5.18-3.627 1320 1320 0 0 0-11.819-8.208l-3.859-2.675-1.79-1.206c-1.6-1.119-1.6-1.119-3.96-3.107v-3a95 95 0 0 1 7.188-5.375l2.306-1.592C442.006 314.756 459.117 304.93 477 296l2.475-1.25C507.79 280.525 539.52 269.398 571 265l4.95-.781q2.805-.424 5.612-.844l2.557-.41c9.483-1.362 17.979-.965 27.881-.965"
  />   
  <path
    fill="#99bf75"
    d="M638 262c22.572 0 22.572 0 29.813.938l2.9.37c24.611 3.506 51.254 9.35 73.934 19.651 2.376 1.051 4.773 2.013 7.193 2.959C781.432 297.656 808.715 314.797 834 334c-3.738 4.194-8.299 7.035-12.937 10.125-5.746 3.876-11.421 7.784-16.875 12.063a313 313 0 0 1-12.938 9.625c-6.17 4.354-12.169 8.91-18.152 13.517-3.747 2.881-7.508 5.726-11.348 8.483-20.175 14.541-39.774 29.996-59.006 45.759q-2.36 1.93-4.728 3.854c-20.392 16.59-41.342 33.865-57.512 54.73L639 494h-1z"
  /> 
</svg>
