<svg xmlns="http://www.w3.org/2000/svg" viewBox="0 0 48 48">
  <circle
    cx="24"
    cy="24"
    r="20"
    fill="#d97706"
    stroke="#fff"
  />
  <path
    fill="#f9fbfc"
    d="M28.512 15.008h.2l.11-.001h.362l.252-.001.53-.001q.337 0 .676-.002h.52l.25-.002h.35l.103-.001a2.08 2.08 0 0 1 1.43.595c.379.401.613.85.612 1.407v.097a2.2 2.2 0 0 1-.152.772l-.03.086c-.206.522-.601.832-1.086 1.08-.42.176-.854.177-1.3.182l-.19.004-.461.007.264.779.122.362.119.35.066.197q.127.375.261.746.057.16.109.32l.13-.048c.411-.135.822-.14 1.25-.14l.3-.003c.563-.003 1.109.071 1.64.269l.086.031c.282.105.547.235.81.378l.112.06c.38.211.711.48 1.03.774q.108.099.22.192c.812.712 1.44 1.873 1.566 2.947q.006.18.005.359v.647c0 .931 0 .931-.096 1.35l-.019.08a5.6 5.6 0 0 1-1.04 2.13l-.078.1q-.115.144-.235.283l-.09.104c-.388.447-.864.753-1.374 1.046l-.117.067c-1.24.666-2.849.858-4.208.466a5.8 5.8 0 0 1-2.313-1.354l-.106-.1c-.558-.523-.973-1.165-1.272-1.867l-.035-.083a5.38 5.38 0 0 1-.244-3.437l.032-.139c.222-.926.732-1.715 1.352-2.423l.126-.146c.187-.216.392-.393.616-.568l.091-.074.084-.067.074-.06c.065-.043.065-.043.17-.043l-.118-.32-.033-.091a13 13 0 0 0-.163-.425l-.066.067-.09.092-.09.09q-.11.106-.228.208c-.18.155-.346.322-.513.49l-.165.165-.2.2c-.081.081-.081.081-.147.186h-.07l-.034.105c-.054.053-.054.053-.123.11a7 7 0 0 0-.45.422l-.08.082-.17.169-.257.257-.165.165-.077.077a8 8 0 0 0-.404.436 4 4 0 0 1-.208.216 5 5 0 0 0-.281.298q-.245.285-.53.53l-.148.13-.054.047q-.09.078-.177.158l-.059.05c-.063.056-.063.056-.128.164a1 1 0 0 0 .046.22c.135.534.074 1.177-.185 1.661l-.047.098c-.3.564-.863.894-1.452 1.088-.511.143-1.07.017-1.531-.223-.382-.234-.79-.58-.978-.997v-.21h-.488v.244c-.015.09-.015.09-.037.172l-.025.095-.028.097-.028.103a5 5 0 0 1-.335.858l-.038.076c-.697 1.36-1.878 2.411-3.331 2.896a7 7 0 0 1-.639.164l-.075.019c-.35.077-.708.066-1.064.066h-.106c-.532 0-1.032-.025-1.543-.19l-.071-.021a3.4 3.4 0 0 1-.452-.187l-.092-.045c-.423-.208-.83-.425-1.197-.722l-.061-.049c-1.131-.912-1.911-2.251-2.082-3.703A9 9 0 0 1 9 27.457v-.078c-.003-1.24.405-2.362 1.161-3.34l.071-.092c.866-1.094 2.212-1.964 3.616-2.13.137-.014.273-.016.41-.017l.095-.002c.874-.01 1.638.033 2.451.382.113.053.113.053.223.047l.047-.088q.265-.475.552-.94c.6-.818.6-.818.795-1.725a4 4 0 0 0-.133-.35l-.04-.098-.126-.303-.085-.208-.209-.505-.175.002-.105.002-.213.003c-.544.003-.981-.132-1.382-.514-.269-.299-.375-.608-.368-1.007a.8.8 0 0 1 .253-.536c.195-.153.384-.263.637-.263l.128-.001h.287l.4-.001h1.125q.408 0 .814-.002h1.511l.212-.001c.341.003.653.068.919.297.176.21.2.418.189.687a.74.74 0 0 1-.154.393l-.049.067c-.352.408-1.056.392-1.552.451q-.386.048-.769.11l.042.107.151.395.067.171.094.246.03.077c.069.18.069.18.069.258h8.852l-.035-.14c-.029-.292-.056-.626.118-.877.229-.257.443-.399.788-.446a6 6 0 0 1 .222-.006l.131-.001h.07l.216-.002a105 105 0 0 1 .992-.009h.142l.2-.003h.116a.6.6 0 0 0 .35-.154c.012-.084.012-.084.014-.183l.005-.1c-.026-.143-.078-.186-.193-.274-.112-.025-.222-.023-.337-.021l-.102-.001h-1.184l-.983-.001h-.553l-.096.001c-.293-.002-.585-.052-.803-.262a.99.99 0 0 1-.243-.733.9.9 0 0 1 .154-.377l.063-.096a.82.82 0 0 1 .618-.258"
  />
  <path
    fill="#d97706"
    d="M33.077 23.464h.083c.47 0 .885.061 1.327.227l.12.042q.151.059.298.132l.064.032c.31.156.57.33.818.574.084.082.17.157.26.233.572.51.91 1.25 1.088 1.984l.024.088c.199.863-.029 1.783-.407 2.56l-.052.11c-.46.907-1.344 1.623-2.303 1.942-1.072.324-2.257.257-3.256-.267-.983-.546-1.672-1.458-1.98-2.53-.286-1.066-.1-2.17.436-3.116.185-.311.425-.581.673-.843l.092-.1.093-.098.085-.09c.078-.06.078-.06.148-.056.096.041.112.088.156.182l.044.096q.105.246.2.495l.1.256.029.073c.171.44.347.88.52 1.319l.094.235.09.227q.102.253.198.508l.033.087.058.157c.086.23.217.415.424.55.197.073.472.062.668-.014a.9.9 0 0 0 .418-.516c.042-.347-.041-.618-.174-.935l-.056-.14-.123-.3-.2-.498a68 68 0 0 0-.567-1.397l-.069-.164-.13-.304-.058-.137-.05-.12a1.1 1.1 0 0 1-.037-.396c.272-.088.538-.087.821-.088"
  />
  <path
    fill="#d97706"
    d="M16.016 23.69c.067.059.067.059.105.105a9 9 0 0 1-.522.949q-.204.323-.4.65l-.155.256-.037.063-.261.427q-.24.39-.475.785l-.059.1-.055.093-.049.082c-.143.264-.141.521-.113.812.069.207.237.372.418.488q.15.045.307.04l.102.002h.111l.117.002.385.002.267.002.63.005.718.006 1.475.011-.114.35-.032.1c-.145.437-.365.795-.655 1.153l-.073.09c-.49.578-1.14.916-1.844 1.165l-.101.036c-.879.285-1.882.165-2.7-.243q-.134-.07-.266-.142l-.099-.053c-.896-.51-1.562-1.405-1.859-2.385a4.2 4.2 0 0 1-.144-1.11v-.11q.005-.354.08-.698l.025-.124a4.07 4.07 0 0 1 1.71-2.456l.113-.069.113-.072c.984-.598 2.261-.776 3.337-.311"
  />
  <path
    fill="#d97706"
    d="M20.651 20.659h7.98a.6.6 0 0 1-.174.242l-.062.056-.066.06c-.154.14-.302.28-.436.44-.264.31-.551.6-.838.888l-.089.089q-.225.227-.468.436a3.3 3.3 0 0 0-.39.403q-.1.117-.218.216a5 5 0 0 0-.412.409l-.137.148-.066.07q-.136.143-.278.282a4 4 0 0 0-.181.201q-.114.135-.25.249a8 8 0 0 0-.46.437l-.08.08-.077.076-.069.07c-.064.066-.064.066-.127.166l-.119-.028-.078-.018-.17-.04a1.6 1.6 0 0 0-.409-.055.84.84 0 0 1-.374-.068c-.064-.085-.096-.18-.132-.279l-.034-.088-.074-.192q-.082-.214-.17-.426l-.139-.344-.046-.117-.095-.235a57 57 0 0 0-.567-1.368 25 25 0 0 1-.233-.562c-.08-.197-.16-.393-.25-.586-.085-.182-.142-.339-.142-.542h-.07z"
  />
  <path
    fill="#d97706"
    d="m19.257 21.635.105.035q.055.123.098.25l.055.155.028.078c.062.168.136.33.208.495q.243.561.464 1.133.117.3.246.593.104.245.2.491.112.28.225.558l.042.1.039.096.034.085c.032.078.032.078.072.15a.57.57 0 0 1 .031.346q-.062.136-.152.255l-.044.064-.117.17-.07.104c-.106.01-.106.01-.23.006l-.126-.003-.097-.003a3.3 3.3 0 0 1-.15-.556 5.23 5.23 0 0 0-1.21-2.441l-.08-.094a4 4 0 0 0-.477-.464 1 1 0 0 1 .142-.372l.066-.115.07-.12.072-.123c.446-.763.446-.763.556-.873"
  />
  <path
    fill="#d97706"
    d="M17.41 24.667c.553.253.871 1.04 1.078 1.575.08.229.1.449.107.69q-.457.044-.916.038h-.5l-.37-.002-.723-.001q.105-.254.24-.492l.04-.072q.202-.347.415-.687.21-.334.411-.673l.055-.09c.085-.141.085-.141.163-.286"
  />
</svg>
