<svg xmlns="http://www.w3.org/2000/svg" viewBox="0 0 48 48">
  <path
    fill="#5b6b7c"
    stroke="#fff"
    d="M24 44c11.046 0 20-8.954 20-20S35.046 4 24 4 4 12.954 4 24s8.954 20 20 20Z"
  />
  <path
    fill="#fff"
    d="M18.258 13.008h.17l.959-.001 1.768-.002h2.495l1.967-.002 3.155-.002a259 259 0 0 1 1.458 0h.613c.512-.004.997.074 1.46.302l.058.028c.802.394 1.373 1.046 1.687 1.882.148.455.18.873.178 1.348v.722l.001.572a617 617 0 0 1 0 2.356v2.463l.001 2.185q.002 1.36.001 2.72v3.414c.003.443-.034.826-.278 1.21l-.038.061c-.266.415-.66.67-1.136.79-.122.02-.242.02-.366.019h-.566l-.557.001-1.983.002h-.684l-2.485.002h-.517l-2.373.002-2.785.002h-.069l-2.189.002h-1.335c-.582.004-1.074-.083-1.521-.495-.482-.511-.559-1.127-.558-1.798v-.19l-.001-.525v-.566q-.003-.586-.002-1.172V27.5l-.002-2.141v-.625q0-1.083-.002-2.166l-.002-2.695v-.065l-.001-.964a309 309 0 0 1-.001-1.656v-.698c-.008-.994.333-1.865 1.024-2.582.67-.67 1.534-.902 2.456-.9"
  />
  <path
    fill="#5b6b7c"
    d="M17.593 17.898h.186q.255-.002.51 0l.552-.001a324 324 0 0 1 1.956 0h8.419a292 292 0 0 1 1.612 0h.679c.577-.003.577-.003.765.18l.066.056c.19.25.151.562.148.861l.001.193v1.068l-.003.918-.001 1.06v1.455l-.002.699q0 .127-.002.256l.001.074a.78.78 0 0 1-.144.458c-.197.182-.406.233-.67.231h-.334l-.185.001h-.509l-.549.002h-1.2l-.75.001-2.61.002h-.068q-1.05 0-2.101.002a1547 1547 0 0 1-3.61.003 290 290 0 0 1-1.607 0l-.676.001h-.244l-.071.001c-.212-.004-.332-.1-.475-.243-.185-.272-.156-.574-.154-.889v-3.235a213 213 0 0 1 0-1.453 51 51 0 0 1 0-.698c-.004-.566-.004-.566.15-.768l.066-.056.043-.041c.226-.184.536-.14.811-.138"
  />
  <path
    fill="#5b6b7c"
    d="M20.045 14.79h.205l.114-.001.314-.001.337-.002.817-.002.384-.001 1.61-.003h.083q.668 0 1.335-.004l1.37-.004q.385 0 .77-.002.328-.002.655-.001l.335-.001q.18-.002.363 0l.106-.002c.232.004.347.063.512.227.1.115.09.221.092.367v.074l.001.153.004.235v.15l.002.07c0 .21-.08.313-.22.464-.143.116-.308.098-.485.096h-.114l-.313.001-.338.001h-.661l-.616.001h-1.614q-.666 0-1.333.002a368 368 0 0 1-2.14.003 79 79 0 0 1-.988 0h-.468c-.213-.003-.326-.042-.48-.191-.112-.139-.123-.26-.126-.435l-.001-.073-.002-.151-.006-.23c-.007-.413-.007-.413.13-.571.117-.108.205-.168.366-.169"
  />
  <path
    fill="#fff"
    d="M14.097 18.714v4.997c-1.415 0-1.415 0-1.694-.25-.34-.347-.403-.677-.403-1.146l.002-.205v-.214l.003-.446q.002-.285.002-.57l.001-.65c.001-.842.001-.842.271-1.142.579-.537.975-.374 1.818-.374"
  />
  <path
    fill="#fff"
    d="M34.945 18.714c1.39 0 1.39 0 1.773.37.216.233.284.476.281.789v1.673a97 97 0 0 1 0 .97v.09c-.003.326-.122.574-.346.81-.5.43-1.042.295-1.708.295z"
  />
  <path
    fill="#fff"
    d="M29.184 33.642h3.629c0 2.023 0 2.023-.383 2.423-.23.22-.505.348-.826.352h-.095l-.103.001-.106.001-.45.003q-.165.003-.329.002l-.101.002c-.337 0-.589-.108-.845-.325-.631-.635-.39-1.683-.39-2.46m-12.986 0h3.629c0 2.021 0 2.021-.35 2.387l-.06.063c-.229.218-.513.32-.828.325l-.09.002-.628.006c-.503.008-.89.002-1.292-.334-.199-.197-.276-.404-.38-.667z"
  />
  <path
    fill="#5b6b7c"
    d="m18.876 27.952.155.12.069.051c.181.146.298.318.408.521l.043.079c.147.328.15.821.022 1.158-.225.468-.545.804-1.037.99-.423.11-.888.062-1.264-.154-.386-.247-.614-.577-.741-1.019-.073-.338-.049-.748.113-1.053l.04-.082c.205-.373.53-.656.939-.783.418-.096.894-.068 1.253.172"
  />
  <path
    fill="#5b6b7c"
    d="M30.872 27.715c.41-.022.808.165 1.122.414.322.297.494.69.515 1.122.01.434-.115.809-.396 1.144l-.048.061c-.214.244-.595.422-.914.456-.482.028-.86-.046-1.25-.348-.256-.234-.501-.613-.531-.968-.018-.678-.018-.678.133-.951l.049-.09c.23-.387.56-.682 1.001-.802.107-.018.21-.027.319-.038"
  />
  <path
    fill="#5b6b7c"
    d="m21.787 29.018.073-.001h.242l.174-.002.766-.002.923-.002q.533 0 1.064-.003a188 188 0 0 1 1.315-.004 45 45 0 0 1 .632-.001c.514-.006.514-.006.727.166.127.127.16.228.163.407a.66.66 0 0 1-.21.5c-.131.1-.244.11-.403.109h-.496l-.478.001H24.94q-.486 0-.972.002h-2.205l-.069.001a.53.53 0 0 1-.371-.144c-.167-.185-.176-.344-.175-.588.02-.147.07-.217.174-.32.148-.107.288-.12.465-.12"
  />
</svg>
