<svg viewBox="0 0 48 48" xmlns="http://www.w3.org/2000/svg">
<path
    fill="#F57EA7"
    stroke="#fff"
    d="M24 44C35.0457 44 44 35.0457 44 24C44 12.9543 35.0457 4 24 4C12.9543 4 4 12.9543 4 24C4 35.0457 12.9543 44 24 44Z"
  />
<path
    fill="#fff"
    d="M26.2804 11.5073C26.3243 11.5283 26.3683 11.5493 26.4123 11.5702C27.7096 12.193 28.735 13.3042 29.2387 14.6557C29.4491 15.2557 29.5505 15.823 29.5504 16.4583C29.5505 16.53 29.5511 16.6016 29.5518 16.6733C29.5537 17.1355 29.4847 17.5795 29.4051 18.0345L29.5107 18.0806C30.177 18.3844 30.5882 18.8472 30.8633 19.5274L30.8994 19.6142C31.0462 20.0423 31.0308 20.6365 30.8633 21.055L30.8263 21.1568C30.5933 21.761 30.1987 22.2171 29.6093 22.4948C29.2759 22.6378 29.0121 22.6971 28.6503 22.6957L28.5263 22.696C28.4132 22.6962 28.3001 22.6961 28.187 22.6959C28.0648 22.6958 27.9426 22.696 27.8205 22.6962C27.5813 22.6965 27.3421 22.6964 27.1029 22.6962C26.9084 22.6961 26.7139 22.696 26.5194 22.6961H26.4354L26.2665 22.6962C25.7388 22.6964 25.2111 22.6962 24.6834 22.6958C24.2311 22.6955 23.7788 22.6956 23.3264 22.6959C22.7447 22.6963 22.1629 22.6964 21.5812 22.6961L21.4975 22.6961C21.3034 22.696 21.1094 22.6961 20.9153 22.6963C20.6784 22.6965 20.4416 22.6964 20.2048 22.6961C20.0841 22.6959 19.9634 22.6959 19.8427 22.6961C19.7115 22.6962 19.5804 22.696 19.4493 22.6957L19.3348 22.6961C18.6711 22.6927 18.161 22.4725 17.6787 22.0163C17.2014 21.5178 16.9954 20.8912 17.0001 20.2134C17.0145 19.6335 17.2467 19.0903 17.6353 18.6594L17.6874 18.5977C17.8157 18.4562 17.9644 18.3529 18.1236 18.2493L18.1856 18.2088C18.3107 18.1299 18.4307 18.0753 18.5727 18.0345L18.5423 17.915C18.3337 17.0038 18.3466 15.9807 18.6074 15.0833L18.6265 15.0116C18.8 14.3614 19.1379 13.7405 19.5449 13.2085L19.6237 13.1043C20.5256 11.9603 21.8049 11.2977 23.2251 11.0559L23.3387 11.0356C24.3116 10.9275 25.3999 11.0604 26.2804 11.5073ZM19.3713 26.8184H28.6065C28.6456 27.0138 28.6456 27.0138 28.6052 27.131C28.5966 27.1565 28.5879 27.1821 28.5791 27.2083L28.5501 27.2893L28.5211 27.3734C28.4538 27.5659 28.3781 27.7538 28.2971 27.9409C28.2494 28.0581 28.2154 28.1771 28.1811 28.2987C28.1464 28.4085 28.0982 28.5101 28.0498 28.6144C28.0154 28.6955 27.9903 28.7756 27.9664 28.8603C27.9181 29.0301 27.8515 29.1884 27.7821 29.3505C27.7396 29.4544 27.7036 29.5585 27.6691 29.6654C27.625 29.8023 27.5743 29.937 27.5172 30.069C27.432 30.2682 27.3636 30.4711 27.2983 30.6776C27.2528 30.819 27.2007 30.9581 27.1421 31.0946C27.0162 31.3922 26.9097 31.6971 26.8006 32.0013C26.7483 32.1471 26.6958 32.2928 26.6433 32.4385L26.5646 32.6569C26.457 32.9555 26.3485 33.2538 26.2391 33.5517L26.1928 33.678C26.1162 33.8866 26.0383 34.0948 25.9592 34.3026C25.8693 34.5401 25.7892 34.7805 25.7117 35.0224C25.6616 35.1777 25.6044 35.3307 25.5404 35.4808C25.4663 35.6554 25.4012 35.8318 25.3387 36.0109L25.3103 36.0919C25.2714 36.2026 25.2329 36.3134 25.1948 36.4243C25.0422 36.8687 24.909 37.2106 24.475 37.4425C24.1842 37.5798 23.8886 37.5904 23.5831 37.4924C23.2921 37.3741 23.0812 37.1707 22.9473 36.887C22.9094 36.7853 22.8745 36.6826 22.8429 36.5788C22.8108 36.4777 22.7742 36.3789 22.7368 36.2797C22.6758 36.1163 22.6172 35.952 22.5582 35.788L22.4849 35.5844C22.4155 35.3917 22.3461 35.199 22.2768 35.0062C22.009 34.261 22.009 34.261 21.7322 33.5192L21.6779 33.3758L21.6528 33.3093C21.5615 33.0672 21.4733 32.8239 21.3882 32.5795C21.34 32.4417 21.2901 32.3045 21.2386 32.168C21.189 32.0364 21.1406 31.9043 21.092 31.7724L21.0596 31.6844C20.9824 31.4745 20.9057 31.2644 20.8295 31.0541C20.7947 30.9585 20.7599 30.8628 20.725 30.7672C20.7026 30.7054 20.6804 30.6436 20.6583 30.5817C20.5927 30.3992 20.5231 30.2181 20.4497 30.0386C20.378 29.8624 20.3129 29.6836 20.2544 29.5027C20.1919 29.3103 20.1198 29.1259 20.0398 28.9402C19.9728 28.7743 19.9191 28.6047 19.8646 28.4343C19.8219 28.3091 19.7708 28.1897 19.7184 28.0683C19.6944 27.9992 19.6713 27.9297 19.649 27.86C19.6122 27.7472 19.5743 27.6393 19.5275 27.5302C19.4806 27.4202 19.4371 27.3087 19.3973 27.196L19.3599 27.0915C19.3365 26.992 19.3365 26.992 19.3713 26.8184Z"
  />
<path
    fill="#fff"
    d="M18.6529 23.3331C18.7006 23.333 18.7483 23.3328 18.7959 23.3326C18.9268 23.3321 19.0575 23.3322 19.1884 23.3325C19.3295 23.3326 19.4707 23.3322 19.6118 23.3318C19.8883 23.3313 20.1647 23.3311 20.4412 23.3314C20.666 23.3315 20.8907 23.3315 21.1153 23.3313L21.2122 23.3312L21.4072 23.3311C22.0165 23.3306 22.6258 23.3308 23.2351 23.3312C23.7924 23.3315 24.3498 23.3311 24.9072 23.3302C25.4796 23.3294 26.0519 23.3291 26.6242 23.3293C26.9455 23.3295 27.2668 23.3293 27.5881 23.3287C27.8617 23.3282 28.1352 23.3282 28.4088 23.3288C28.5483 23.3291 28.6879 23.3292 28.8274 23.3286C28.9552 23.3282 29.083 23.3283 29.2108 23.329C29.2788 23.3292 29.3468 23.3287 29.4148 23.3282C29.7022 23.3306 29.8925 23.3655 30.1146 23.5592C30.2146 23.7431 30.224 23.9133 30.1794 24.1169C30.129 24.2855 30.0687 24.4483 30.0021 24.611C29.9413 24.7617 29.8872 24.9142 29.8349 25.068L29.7864 25.2094C29.7615 25.2819 29.7369 25.3545 29.7126 25.4272C29.6886 25.4986 29.6643 25.5698 29.6396 25.6409L29.5965 25.7681C29.5029 25.9694 29.3668 26.0797 29.1621 26.1588C29.023 26.1743 28.8846 26.1732 28.7448 26.1725L28.6164 26.1732C28.499 26.1737 28.3817 26.1737 28.2643 26.1735C28.1376 26.1734 28.011 26.1739 27.8843 26.1743C27.6363 26.175 27.3882 26.1752 27.1401 26.1751C26.8804 26.1751 26.6207 26.1753 26.3609 26.1757L26.2733 26.1758C25.7265 26.1765 25.1796 26.1764 24.6328 26.1762C24.1327 26.176 23.6326 26.1767 23.1325 26.1779C22.6188 26.1791 22.1052 26.1796 21.5916 26.1794C21.3032 26.1792 21.0149 26.1796 20.7266 26.1804C20.4811 26.1811 20.2356 26.1812 19.9902 26.1806C19.865 26.1802 19.7398 26.1802 19.6146 26.1809C19.4788 26.1817 19.343 26.1811 19.2071 26.1804L19.0876 26.1817C18.8498 26.1791 18.6858 26.1437 18.5033 25.9852C18.4028 25.8569 18.3585 25.7076 18.3091 25.5538L18.2846 25.4795C18.2589 25.4015 18.2336 25.3234 18.2082 25.2453C18.1827 25.1676 18.1573 25.0899 18.1318 25.0122C18.1159 24.964 18.1002 24.9158 18.0846 24.8676C18.0207 24.6721 17.9516 24.4791 17.8713 24.2897C17.7815 24.0721 17.7395 23.8891 17.8089 23.6591C17.9899 23.3187 18.314 23.3315 18.6529 23.3331Z"
  />
</svg>
