<svg viewBox="0 0 42 42" xmlns="http://www.w3.org/2000/svg">
<path
    fill="#3E8E5A"
    opacity="0.6"
    d="M28.2745 3.32229L28.2247 3.281V3.24042L28.1749 3.19913L28.1243 3.15856L28.0745 3.11727L28.0247 3.07669V3.03541L27.9741 2.99483L27.9243 2.95781L27.92 2.91724L25.0939 1.87507L24.197 1.55615L23.305 1.23795L22.3632 0.919033L20.4241 0.20005L19.9286 1.61888e-05V0.0413043L19.9329 0.286898V0.327474L19.8696 2.66666L19.8966 4.71897V4.76025L17.5254 4.74175L16.4377 4.71042L14.7085 4.72822L13.8714 4.69619L12.3373 4.71042L12.0917 4.71469L10.0665 4.69192L9.43861 5.60239L9.09763 6.05727L4.16868 6.76273L2.84319 6.98056L2.85031 6.97344L0.0775944 7.38347L0.0697638 9.17808L0.0548147 9.18378V9.22436L0.0455607 11.9736L1.41979e-06 15.5457L2.23454 16.3423L3.15356 18.6722L3.61343 23.0594L3.67251 23.7144L4.41926 30.8914L10.7221 33.2078L10.7719 33.2484L14.1035 38.141L22.2586 42L30.2863 37.0761L30.5817 36.871L30.6038 36.8767L33.1487 35.3291V35.3099L41.5999 30.1952L41.5814 28.9615L41.6085 27.6104L41.6405 26.1724L41.6177 24.775L41.6455 23.2189L41.6633 20.8797L41.659 20.5928L41.654 20.3423L41.6455 19.646L41.6768 18.4174L41.659 17.1844L41.6405 15.9145L41.6676 14.4765L41.7046 13.2841L41.6903 12.3423L41.7181 10.9036L41.6903 9.09693L33.3444 5.61093L33.343 5.61022L31.2516 4.7332L30.8095 4.54812V4.52819L30.6593 4.4869L29.1715 3.84551H29.121L29.0213 3.8092L28.9707 3.76791L28.9209 3.72734H28.8711L28.8205 3.68605L28.7707 3.64547L28.7209 3.60419H28.6703L28.6205 3.56361L28.5707 3.52232L28.5201 3.48174L28.4753 3.44473L28.4247 3.40415L28.3749 3.36286H28.3251L28.2745 3.32229Z"
  />
</svg>
